<?xml version="1.0" encoding="UTF-8" standalone="no"?>
<!-- Uploaded to: SVG Repo, www.svgrepo.com, Generator: SVG Repo Mixer Tools -->

<svg
   height="800"
   width="800"
   version="1.1"
   id="Layer_1"
   viewBox="0 0 512 512"
   xml:space="preserve"
   xmlns="http://www.w3.org/2000/svg"
   xmlns:svg="http://www.w3.org/2000/svg"><defs
   id="defs4" />
<path
   style="fill:#fcc447"
   d="m 389.568,122.381 h -93.69 V 48.43 c 0,-22.08 -17.9,-39.98 -39.98,-39.98 v 0 c -22.08,0 -39.98,17.9 -39.98,39.98 v 73.951 h -93.69 c -22.081,0 -39.98,17.9 -39.98,39.98 v 0 c 0,22.081 17.9,39.98 39.98,39.98 h 93.69 v 261.232 c 0,22.08 17.9,39.98 39.98,39.98 v 0 c 22.08,0 39.98,-17.9 39.98,-39.98 V 202.342 h 93.69 c 22.081,0 39.98,-17.9 39.98,-39.98 v 0 c 10e-4,-22.081 -17.899,-39.981 -39.98,-39.981 z"
   id="path1" />
<path
   d="M 389.669,113.931 H 304.428 V 48.429 C 304.429,21.725 282.703,0 256,0 229.297,0 207.571,21.725 207.571,48.429 v 65.502 H 122.33 c -26.704,0 -48.429,21.726 -48.429,48.429 0,26.703 21.726,48.429 48.429,48.429 h 85.241 v 108.10825 c 0,4.666 8.2955,107.72399 9.57712,29.88337 0.0768,-4.66537 7.32088,-30.858 7.32088,-95.31462 V 202.34 c 0,-4.666 -3.783,-8.449 -8.449,-8.449 h -93.69 c -17.386,0 -31.53,-14.144 -31.53,-31.53 0,-17.386 14.145,-31.53 31.53,-31.53 h 93.69 c 4.666,0 8.449,-3.783 8.449,-8.449 V 48.429 c 0,-17.386 14.145,-31.53 31.53,-31.53 17.385,0 31.53,14.144 31.53,31.53 v 73.951 c 0,4.666 3.783,8.449 8.449,8.449 h 93.69 c 17.386,0 31.53,14.145 31.53,31.53 0,17.385 -14.145,31.53 -31.53,31.53 h -93.69 c -4.666,0 -8.449,3.783 -8.449,8.449 V 463.57 c 0,17.386 -14.145,31.53 -31.53,31.53 -17.385,0 -31.53,-14.145 -31.53,-31.53 V 288.95 c 0,-4.666 -3.783,-8.449 -8.449,-8.449 -4.666,0 -8.449,3.783 -8.449,8.449 v 174.621 c 0,26.704 21.726,48.429 48.429,48.429 26.703,0 48.429,-21.726 48.429,-48.429 V 210.789 h 85.241 c 26.704,0 48.429,-21.725 48.429,-48.429 0,-26.704 -21.725,-48.429 -48.43,-48.429 z"
   id="path2" />
<path
   d="m 388.574,170.809 c 4.666,0 8.449,-3.783 8.449,-8.449 0,-4.666 -3.783,-8.449 -8.449,-8.449 h -52.383 c -4.666,0 -8.449,3.783 -8.449,8.449 0,4.666 3.783,8.449 8.449,8.449 z"
   id="path3" />
<path
   d="m 256,32.106 c -4.666,0 -8.449,3.783 -8.449,8.449 V 153.911 H 123.426 c -4.666,0 -8.449,3.783 -8.449,8.449 0,4.666 3.783,8.449 8.449,8.449 h 124.126 v 300.636 c 0,4.666 3.783,8.449 8.449,8.449 4.666,0 8.449,-3.783 8.449,-8.449 V 170.81 h 70.65825 c 37.38162,0 16.34587,-3.783 16.34587,-8.449 0,-4.666 30.06075,-8.449 -1.68025,-8.449 H 264.45 V 40.555 c -10e-4,-4.667 -3.784,-8.449 -8.45,-8.449 z"
   id="path4" />
</svg>
