<?xml version="1.0" encoding="UTF-8" standalone="no"?>
<!DOCTYPE svg PUBLIC "-//W3C//DTD SVG 1.1//EN" "http://www.w3.org/Graphics/SVG/1.1/DTD/svg11.dtd">
<!-- Created with Vectornator (http://vectornator.io/) -->
<svg height="100%" stroke-miterlimit="10" style="fill-rule:nonzero;clip-rule:evenodd;stroke-linecap:round;stroke-linejoin:round;" version="1.1" viewBox="0 0 300 1024" width="100%" xml:space="preserve" xmlns="http://www.w3.org/2000/svg" xmlns:vectornator="http://vectornator.io" xmlns:xlink="http://www.w3.org/1999/xlink">
<defs/>
<clipPath id="ArtboardFrame">
<rect height="1024" width="300" x="0" y="0"/>
</clipPath>
<g clip-path="url(#ArtboardFrame)" id="Layer-1" vectornator:layerName="Layer 1">
<path d="M-1.62565-0.915032L49.1803-0.915032L49.1803 1024.77L-1.62565 1024.77L-1.62565-0.915032Z" fill="#3c1b1c" fill-rule="nonzero" opacity="1" stroke="none" vectornator:layerName="Rectangle 4"/>
<path d="M49.0883-1.27189L301.15-1.27189L301.15 1024.72L49.0883 1024.72L49.0883-1.27189Z" fill="#4c2323" fill-rule="nonzero" opacity="1" stroke="none" vectornator:layerName="Rectangle 3"/>
<path d="M76.7671 897.612C76.7671 887.632 68.2149 879.54 57.6666 879.54L0.365056 879.54L0.365056 915.684L57.6666 915.684C68.2149 915.684 76.7671 907.593 76.7671 897.612Z" fill="#7f3c3b" fill-rule="nonzero" opacity="1" stroke="none" vectornator:layerName="path"/>
<path d="M76.9126 120.848C76.9126 110.868 68.3603 102.776 57.8121 102.776L0.51049 102.776L0.51049 138.92L57.8121 138.92C68.3603 138.92 76.9126 130.828 76.9126 120.848Z" fill="#7f3c3b" fill-rule="nonzero" opacity="1" stroke="none" vectornator:layerName="path"/>
<g fill="#ffb441" opacity="1" stroke="none" vectornator:layerName="Text">
<path d="M70.9542 443.588L61.6729 443.588L51.0089 428.494L47.5636 432.033L47.5636 443.588L40.462 443.588L40.462 409.041L47.5636 409.041L47.5636 423.267L60.8995 409.041L70.2276 409.041L56.0714 423.267L70.9542 443.588Z"/>
<path d="M95.2354 436.486L82.5089 436.486L80.1182 443.588L72.5714 443.588L84.8995 409.041L93.0557 409.041L105.29 443.588L97.462 443.588L95.2354 436.486ZM93.2198 430.533L88.9073 416.939L84.4542 430.533L93.2198 430.533Z"/>
<path d="M137.61 443.588L130.392 443.588L116.282 419.049L116.282 443.588L109.556 443.588L109.556 409.041L117.126 409.041L130.884 433.158L130.884 409.041L137.61 409.041L137.61 443.588Z"/>
<path d="M172.274 443.588L165.056 443.588L150.946 419.049L150.946 443.588L144.22 443.588L144.22 409.041L151.79 409.041L165.548 433.158L165.548 409.041L172.274 409.041L172.274 443.588Z"/>
<path d="M199.228 436.486L186.501 436.486L184.11 443.588L176.564 443.588L188.892 409.041L197.048 409.041L209.282 443.588L201.454 443.588L199.228 436.486ZM197.212 430.533L192.899 416.939L188.446 430.533L197.212 430.533Z"/>
<path d="M228.548 443.588L213.665 443.588L213.665 409.041L228.548 409.041C230.689 409.072 232.47 409.322 233.892 409.791C236.314 410.588 238.274 412.049 239.774 414.174C240.978 415.892 241.798 417.752 242.235 419.752C242.673 421.752 242.892 423.658 242.892 425.471C242.892 430.064 241.97 433.955 240.126 437.142C237.626 441.439 233.767 443.588 228.548 443.588ZM233.915 417.853C232.806 415.978 230.61 415.041 227.329 415.041L220.673 415.041L220.673 437.588L227.329 437.588C230.735 437.588 233.11 435.908 234.454 432.549C235.189 430.705 235.556 428.51 235.556 425.963C235.556 422.447 235.009 419.744 233.915 417.853Z"/>
<path d="M268.556 436.486L255.829 436.486L253.439 443.588L245.892 443.588L258.22 409.041L266.376 409.041L278.61 443.588L270.782 443.588L268.556 436.486ZM266.54 430.533L262.228 416.939L257.774 430.533L266.54 430.533Z"/>
<path d="M104.564 501.588L88.9073 501.588L88.9073 467.041L105.689 467.041C109.923 467.103 112.923 468.33 114.689 470.721C115.751 472.189 116.282 473.947 116.282 475.994C116.282 478.103 115.751 479.799 114.689 481.08C114.095 481.799 113.22 482.455 112.064 483.049C113.829 483.689 115.161 484.705 116.06 486.096C116.958 487.486 117.407 489.174 117.407 491.158C117.407 493.205 116.892 495.041 115.86 496.666C115.204 497.744 114.384 498.65 113.399 499.385C112.29 500.228 110.982 500.806 109.474 501.119C107.966 501.431 106.329 501.588 104.564 501.588ZM104.399 486.377L95.7979 486.377L95.7979 495.588L104.282 495.588C105.798 495.588 106.978 495.385 107.821 494.978C109.353 494.228 110.118 492.791 110.118 490.666C110.118 488.869 109.376 487.635 107.892 486.963C107.064 486.588 105.899 486.392 104.399 486.377ZM107.985 479.791C108.923 479.228 109.392 478.221 109.392 476.767C109.392 475.158 108.767 474.096 107.517 473.58C106.439 473.221 105.064 473.041 103.392 473.041L95.7979 473.041L95.7979 480.658L104.282 480.658C105.798 480.658 107.032 480.369 107.985 479.791Z"/>
<path d="M122.892 467.041L130.064 467.041L130.064 501.588L122.892 501.588L122.892 467.041Z"/>
<path d="M152.564 501.588L136.907 501.588L136.907 467.041L153.689 467.041C157.923 467.103 160.923 468.33 162.689 470.721C163.751 472.189 164.282 473.947 164.282 475.994C164.282 478.103 163.751 479.799 162.689 481.08C162.095 481.799 161.22 482.455 160.064 483.049C161.829 483.689 163.161 484.705 164.06 486.096C164.958 487.486 165.407 489.174 165.407 491.158C165.407 493.205 164.892 495.041 163.86 496.666C163.204 497.744 162.384 498.65 161.399 499.385C160.29 500.228 158.982 500.806 157.474 501.119C155.966 501.431 154.329 501.588 152.564 501.588ZM152.399 486.377L143.798 486.377L143.798 495.588L152.282 495.588C153.798 495.588 154.978 495.385 155.821 494.978C157.353 494.228 158.118 492.791 158.118 490.666C158.118 488.869 157.376 487.635 155.892 486.963C155.064 486.588 153.899 486.392 152.399 486.377ZM155.985 479.791C156.923 479.228 157.392 478.221 157.392 476.767C157.392 475.158 156.767 474.096 155.517 473.58C154.439 473.221 153.064 473.041 151.392 473.041L143.798 473.041L143.798 480.658L152.282 480.658C153.798 480.658 155.032 480.369 155.985 479.791Z"/>
<path d="M171.454 467.041L178.673 467.041L178.673 495.377L195.782 495.377L195.782 501.588L171.454 501.588L171.454 467.041Z"/>
<path d="M224.821 486.494L208.04 486.494L208.04 495.377L227.165 495.377L227.165 501.588L200.985 501.588L200.985 467.041L226.321 467.041L226.321 473.158L208.04 473.158L208.04 480.494L224.821 480.494L224.821 486.494Z"/>
</g>
<path d="M99.097 93.0882L119.32 126.492C119.32 126.492 119.32 85.5079 119.32 55.2352C119.32 24.9626 119.32 5.4015 119.32 5.4015C119.32-1.51635 115.789-7.10708 115.459-6.75652L92.8418-7.12516C87.3815-7.12516 82.9544-1.51635 82.9544 5.4015L82.9544 51.7894L82.9544 126.492L99.097 93.0882Z" fill="#ffb441" fill-rule="nonzero" opacity="1" stroke="none" vectornator:layerName="path"/>
</g>
</svg>
